<?xml version="1.0" encoding="UTF-8" standalone="no"?>
<!-- Created with Inkscape (http://www.inkscape.org/) -->

<svg
   xmlns:dc="http://purl.org/dc/elements/1.1/"
   xmlns:cc="http://creativecommons.org/ns#"
   xmlns:rdf="http://www.w3.org/1999/02/22-rdf-syntax-ns#"
   xmlns:svg="http://www.w3.org/2000/svg"
   xmlns="http://www.w3.org/2000/svg"
   xmlns:sodipodi="http://sodipodi.sourceforge.net/DTD/sodipodi-0.dtd"
   xmlns:inkscape="http://www.inkscape.org/namespaces/inkscape"
   width="250"
   height="250"
   viewBox="0 0 66.145834 66.145835"
   version="1.1"
   id="svg8"
   inkscape:version="0.92.3 (2405546, 2018-03-11)"
   sodipodi:docname="logo1.svg"
   inkscape:export-filename="C:\Users\vlado\Pictures\sapientia.png"
   inkscape:export-xdpi="96"
   inkscape:export-ydpi="96">
  <defs
     id="defs2" />
  <sodipodi:namedview
     id="base"
     pagecolor="#ffffff"
     bordercolor="#666666"
     borderopacity="1.0"
     inkscape:pageopacity="0.0"
     inkscape:pageshadow="2"
     inkscape:zoom="1.979899"
     inkscape:cx="118.57817"
     inkscape:cy="83.757279"
     inkscape:document-units="px"
     inkscape:current-layer="layer2"
     showgrid="false"
     units="px"
     showguides="true"
     inkscape:guide-bbox="true"
     inkscape:snap-nodes="true"
     inkscape:object-paths="true"
     inkscape:snap-bbox="true"
     objecttolerance="1"
     guidetolerance="1"
     inkscape:window-width="1920"
     inkscape:window-height="1001"
     inkscape:window-x="2391"
     inkscape:window-y="117"
     inkscape:window-maximized="1">
    <sodipodi:guide
       position="158.75,158.75"
       orientation="0,1"
       id="guide815"
       inkscape:locked="false"
       inkscape:label=""
       inkscape:color="rgb(0,0,255)" />
    <sodipodi:guide
       position="158.75,158.75"
       orientation="1,0"
       id="guide817"
       inkscape:locked="false"
       inkscape:label=""
       inkscape:color="rgb(0,0,255)" />
    <sodipodi:guide
       position="-132.29167,-81.316754"
       orientation="0,1"
       id="guide1143"
       inkscape:locked="false" />
  </sodipodi:namedview>
  <metadata
     id="metadata5">
    <rdf:RDF>
      <cc:Work
         rdf:about="">
        <dc:format>image/svg+xml</dc:format>
        <dc:type
           rdf:resource="http://purl.org/dc/dcmitype/StillImage" />
        <dc:title></dc:title>
      </cc:Work>
    </rdf:RDF>
  </metadata>
  <g
     inkscape:label="Layer 1"
     inkscape:groupmode="layer"
     id="layer1"
     transform="translate(0,-230.85415)" />
  <g
     inkscape:groupmode="layer"
     id="layer2"
     inkscape:label="Layer 2"
     transform="translate(0,-198.4375)">
    <g
       id="g2846"
       transform="matrix(0.24513871,0,0,0.24513871,0.70350627,198.75955)">
      <circle
         r="132.29167"
         cy="164.77846"
         cx="132.29167"
         id="path2836"
         style="opacity:1;fill:#ff000a;fill-opacity:1;stroke:#630000;stroke-width:0.38814375;stroke-miterlimit:4;stroke-dasharray:none;stroke-opacity:1;paint-order:stroke fill markers"
         transform="translate(0,-32.41665)" />
      <path
         inkscape:connector-curvature="0"
         id="path2665"
         d="M 132.29167,-0.02701258 A 132.29167,132.29167 0 0 0 -1.3800073e-6,132.26465 132.29167,132.29167 0 0 0 132.29167,264.55632 132.29167,132.29167 0 0 0 264.58333,132.26465 132.29167,132.29167 0 0 0 132.29167,-0.02701258 Z m 0,13.16250258 A 119.0625,119.0625 0 0 1 251.35416,132.19799 119.0625,119.0625 0 0 1 132.29167,251.26049 119.0625,119.0625 0 0 1 13.229168,132.19799 119.0625,119.0625 0 0 1 132.29167,13.13549 Z m 0,0.248047 -22.80585,39.500948 a 82.658203,82.658203 0 0 0 -59.852162,79.380165 82.658203,82.658203 0 0 0 2.53473,19.89646 l -22.74331,39.39243 h 45.27269 a 82.658203,82.658203 0 0 0 57.593902,23.36911 82.658203,82.658203 0 0 0 57.46936,-23.36911 h 45.39722 L 212.42889,152.1854 a 82.658203,82.658203 0 0 0 2.52078,-19.92075 82.658203,82.658203 0 0 0 -59.87697,-79.423056 z m 0,21.977986 8.53229,14.778426 a 82.658203,82.658203 0 0 0 -8.53229,-0.533299 82.658203,82.658203 0 0 0 -8.48321,0.447516 z m 0,26.218558 a 70.589814,70.589814 0 0 1 16.28272,1.98386 l 51.30746,88.867439 a 70.589814,70.589814 0 0 1 -16.24397,28.05255 H 80.892218 A 70.589814,70.589814 0 0 1 64.720598,152.39727 L 116.00584,63.569621 a 70.589814,70.589814 0 0 1 16.28583,-1.98954 z M 99.912246,69.465902 61.817408,135.44792 a 70.589814,70.589814 0 0 1 -0.11575,-3.27784 70.589814,70.589814 0 0 1 38.210588,-62.704178 z m 64.797594,0.0677 a 70.589814,70.589814 0 0 1 38.17183,62.636478 70.589814,70.589814 0 0 1 -0.16019,3.20136 z m 42.96275,96.391008 8.40569,14.55932 h -16.77727 a 82.658203,82.658203 0 0 0 8.37158,-14.55932 z m -150.784072,0.0393 a 82.658203,82.658203 0 0 0 8.35866,14.52004 h -16.74213 z m 37.37653,25.58965 h 76.189142 a 70.589814,70.589814 0 0 1 -38.16252,11.20655 70.589814,70.589814 0 0 1 -38.026622,-11.20655 z"
         style="opacity:1;fill:#000001;fill-opacity:1;stroke:#ffffff;stroke-width:2.3812499;stroke-miterlimit:4;stroke-dasharray:none;stroke-opacity:1;paint-order:stroke fill markers" />
    </g>
  </g>
</svg>
